<svg width="68" height="68" viewBox="0 0 68 68" fill="none" xmlns="http://www.w3.org/2000/svg">
<g clip-path="url(#clip0_1352_33)">
<path d="M30.1601 65.72C45.9499 65.72 58.7501 52.9199 58.7501 37.13C58.7501 21.3402 45.9499 8.54004 30.1601 8.54004C14.3702 8.54004 1.57007 21.3402 1.57007 37.13C1.57007 52.9199 14.3702 65.72 30.1601 65.72Z" stroke="#202020" stroke-width="3.14" stroke-miterlimit="10" stroke-linecap="round"/>
<path d="M30.1601 54.46C39.7312 54.46 47.4901 46.7011 47.4901 37.1301C47.4901 27.559 39.7312 19.8 30.1601 19.8C20.589 19.8 12.8301 27.559 12.8301 37.1301C12.8301 46.7011 20.589 54.46 30.1601 54.46Z" stroke="#202020" stroke-width="3.14" stroke-miterlimit="10" stroke-linecap="round"/>
<path d="M30.1599 43.1601C33.4902 43.1601 36.1899 40.4604 36.1899 37.1301C36.1899 33.7998 33.4902 31.1001 30.1599 31.1001C26.8296 31.1001 24.1299 33.7998 24.1299 37.1301C24.1299 40.4604 26.8296 43.1601 30.1599 43.1601Z" fill="#202020"/>
<path d="M59.83 0L52.53 6.83V14.83H59.83L67.6 7.42L60.31 7.05L59.83 0Z" fill="#202020"/>
<path d="M30 37.45L57.45 10" stroke="#202020" stroke-width="3.14" stroke-miterlimit="10" stroke-linecap="round"/>
</g>
<defs>
<clipPath id="clip0_1352_33">
<rect width="67.6" height="67.29" fill="white"/>
</clipPath>
</defs>
</svg>
