<svg width="20" height="20" viewBox="0 0 20 20" fill="none" xmlns="http://www.w3.org/2000/svg">
<path d="M7.1875 9.37503H5V7.50003H7.1875C7.43614 7.50003 7.6746 7.5988 7.85041 7.77462C8.02623 7.95043 8.125 8.18889 8.125 8.43753C8.125 8.68617 8.02623 8.92463 7.85041 9.10044C7.6746 9.27626 7.43614 9.37503 7.1875 9.37503ZM7.5 10.625H5V13.125H7.5C7.83152 13.125 8.14946 12.9933 8.38388 12.7589C8.6183 12.5245 8.75 12.2066 8.75 11.875C8.75 11.5435 8.6183 11.2256 8.38388 10.9911C8.14946 10.7567 7.83152 10.625 7.5 10.625ZM13.75 9.37503C13.3624 9.37515 12.9843 9.49541 12.6678 9.71927C12.3513 9.94312 12.112 10.2596 11.9828 10.625H15.5172C15.388 10.2596 15.1487 9.94312 14.8322 9.71927C14.5157 9.49541 14.1376 9.37515 13.75 9.37503ZM18.75 3.07141V16.875C18.75 17.2065 18.6183 17.5245 18.3839 17.7589C18.1495 17.9933 17.8315 18.125 17.5 18.125H2.5C2.16848 18.125 1.85054 17.9933 1.61612 17.7589C1.3817 17.5245 1.25 17.2065 1.25 16.875V3.07141C1.25 2.73989 1.3817 2.42195 1.61612 2.18753C1.85054 1.95311 2.16848 1.82141 2.5 1.82141H17.5C17.8315 1.82141 18.1495 1.95311 18.3839 2.18753C18.6183 2.42195 18.75 2.73989 18.75 3.07141ZM11.25 6.87503C11.25 7.04079 11.3158 7.19976 11.4331 7.31697C11.5503 7.43418 11.7092 7.50003 11.875 7.50003H15.625C15.7908 7.50003 15.9497 7.43418 16.0669 7.31697C16.1842 7.19976 16.25 7.04079 16.25 6.87503C16.25 6.70927 16.1842 6.5503 16.0669 6.43309C15.9497 6.31588 15.7908 6.25003 15.625 6.25003H11.875C11.7092 6.25003 11.5503 6.31588 11.4331 6.43309C11.3158 6.5503 11.25 6.70927 11.25 6.87503ZM10 11.875C9.9998 11.4656 9.89903 11.0624 9.70655 10.701C9.51407 10.3396 9.23576 10.031 8.89609 9.80238C9.15302 9.48057 9.3139 9.09277 9.36022 8.68359C9.40654 8.27441 9.33642 7.86047 9.15793 7.48937C8.97944 7.11827 8.69983 6.80509 8.35125 6.58584C8.00268 6.3666 7.59929 6.2502 7.1875 6.25003H4.375C4.20924 6.25003 4.05027 6.31588 3.93306 6.43309C3.81585 6.5503 3.75 6.70927 3.75 6.87503V13.75C3.75 13.9158 3.81585 14.0748 3.93306 14.192C4.05027 14.3092 4.20924 14.375 4.375 14.375H7.5C8.16304 14.375 8.79893 14.1116 9.26777 13.6428C9.73661 13.174 10 12.5381 10 11.875ZM16.875 11.25C16.875 10.5354 16.63 9.84245 16.181 9.28656C15.732 8.73067 15.106 8.34546 14.4074 8.19514C13.7088 8.04481 12.9798 8.13844 12.3419 8.46044C11.7039 8.78243 11.1956 9.31333 10.9017 9.96465C10.6077 10.616 10.5458 11.3484 10.7264 12.0398C10.9069 12.7312 11.319 13.3398 11.8939 13.7643C12.4688 14.1887 13.1717 14.4033 13.8857 14.3723C14.5996 14.3412 15.2813 14.0665 15.8172 13.5938C15.9415 13.4841 16.0172 13.3295 16.0275 13.164C16.0378 12.9985 15.982 12.8357 15.8723 12.7114C15.8179 12.6498 15.752 12.5995 15.6783 12.5635C15.6045 12.5274 15.5244 12.5062 15.4425 12.5011C15.277 12.4907 15.1142 12.5466 14.9898 12.6563C14.7598 12.859 14.4834 13.0022 14.1852 13.0733C13.8869 13.1444 13.5757 13.1413 13.2789 13.0642C12.9821 12.987 12.7087 12.8383 12.4828 12.631C12.2568 12.4237 12.0851 12.1641 11.9828 11.875H16.25C16.4158 11.875 16.5747 11.8092 16.6919 11.692C16.8092 11.5748 16.875 11.4158 16.875 11.25Z" fill="#0B0A0C"/>
</svg>
