<?xml version="1.0" encoding="utf-8"?>
<!-- Generator: Adobe Illustrator 24.0.0, SVG Export Plug-In . SVG Version: 6.00 Build 0)  -->
<svg version="1.1" id="Layer_2" xmlns="http://www.w3.org/2000/svg" xmlns:xlink="http://www.w3.org/1999/xlink" x="0px" y="0px"
	 viewBox="0 0 20 20" style="enable-background:new 0 0 20 20;" xml:space="preserve">
<path d="M8.2,9.7c0,0,1.6-0.3,1.6-2.9S7.2,3.9,6.2,3.9c-1,0-6.1,0-6.1,0v12.2h6.8c0,0,3.4,0,3.4-3.9C10.2,11,9.4,10,8.2,9.7z M2.8,6
	h3.1c0.8,0,1.4,0.6,1.4,1.4c0,0.8-0.6,1.4-1.4,1.4H2.8V6z M5.9,14h-3v-3.3h3c0.9-0.1,1.7,0.6,1.7,1.5C7.7,13.1,7,13.9,6.1,14
	C6,14,6,14,5.9,14L5.9,14z"/>
<path d="M15.2,6.7c-5.4,0.1-3.8,6.8-3.8,6.8c0.7,1.6,2.4,2.7,4.2,2.5c3.2-0.1,4-2,4.1-2.8h-2.3c0,0-0.3,1-1.9,1s-2.1-1.1-2.1-2.3
	h6.5C19.9,12,20.6,6.7,15.2,6.7z M13.4,10.4c0-1.1,0.9-1.9,2-1.9c1.1,0,2.1,0.8,2.2,1.9H13.4z"/>
<rect x="13" y="4.4" width="4.9" height="1.2"/>
</svg>
