<svg width="24" height="24" viewBox="0 0 24 24" fill="none" xmlns="http://www.w3.org/2000/svg">
<path d="M6.96938 11.4694L14.4694 3.96937C14.5391 3.89969 14.6218 3.84441 14.7128 3.8067C14.8039 3.76899 14.9015 3.74958 15 3.74958C15.0985 3.74958 15.1961 3.76899 15.2872 3.8067C15.3782 3.84441 15.4609 3.89969 15.5306 3.96937C15.6003 4.03905 15.6556 4.12178 15.6933 4.21282C15.731 4.30387 15.7504 4.40145 15.7504 4.5C15.7504 4.59854 15.731 4.69612 15.6933 4.78717C15.6556 4.87821 15.6003 4.96094 15.5306 5.03062L8.56031 12L15.5306 18.9694C15.6714 19.1101 15.7504 19.301 15.7504 19.5C15.7504 19.699 15.6714 19.8899 15.5306 20.0306C15.3899 20.1714 15.199 20.2504 15 20.2504C14.801 20.2504 14.6101 20.1714 14.4694 20.0306L6.96938 12.5306C6.89964 12.461 6.84432 12.3783 6.80658 12.2872C6.76884 12.1962 6.74941 12.0986 6.74941 12C6.74941 11.9014 6.76884 11.8038 6.80658 11.7128C6.84432 11.6217 6.89964 11.539 6.96938 11.4694Z" fill="black"/>
</svg>
