<?xml version="1.0" encoding="utf-8"?>
<!-- Generator: Adobe Illustrator 24.0.0, SVG Export Plug-In . SVG Version: 6.00 Build 0)  -->
<svg version="1.1" id="Capa_1" xmlns="http://www.w3.org/2000/svg" xmlns:xlink="http://www.w3.org/1999/xlink" x="0px" y="0px"
	 viewBox="0 0 42.9 60.2" style="enable-background:new 0 0 42.9 60.2;" xml:space="preserve">
<style type="text/css">
	.st0{fill:#202020;}
</style>
<path class="st0" d="M39.9,59.3H1.2v-0.7c-0.3-0.4-0.5-0.9-0.5-1.4V3.8c0-1.1,0.9-2,2-2h28.5l0.6,0.1l0.6,0.4l8.7,7.7
	c0.6,0.4,0.9,1,0.9,1.7l0,45.7C41.9,58.4,41,59.3,39.9,59.3z M4.2,56.3h34.8l0-44.3l-8.3-7.4H3.6v51.6L4.2,56.3z"/>
<path class="st0" d="M8,25.3c-0.1,0-0.1,0-0.2,0c-0.2-0.1-0.3-0.3-0.3-0.5V12.4c-0.1-0.3-0.1-0.6-0.1-0.8c0-2.5,2-4.5,4.5-4.5
	s4.5,2,4.5,4.5c0,0.2,0,0.5-0.1,0.8v12.2c0,0.2-0.1,0.4-0.4,0.5c-0.1,0-0.1,0-0.2,0c-0.1,0-0.3-0.1-0.4-0.2L12,21.6l-3.5,3.5
	C8.3,25.3,8.2,25.3,8,25.3L8,25.3z"/>
<path class="st0" d="M36,34.9H7.4c-0.8,0-1.5-0.7-1.5-1.5s0.7-1.5,1.5-1.5H36c0.8,0,1.5,0.7,1.5,1.5S36.8,34.9,36,34.9z"/>
<path class="st0" d="M36,41.2H7.4c-0.8,0-1.5-0.7-1.5-1.5s0.7-1.5,1.5-1.5H36c0.8,0,1.5,0.7,1.5,1.5S36.8,41.2,36,41.2z"/>
<path class="st0" d="M36,47.4H7.4c-0.8,0-1.5-0.7-1.5-1.5s0.7-1.5,1.5-1.5H36c0.8,0,1.5,0.7,1.5,1.5S36.8,47.4,36,47.4z"/>
<path class="st0" d="M22.2,53.7H7.4c-0.8,0-1.5-0.7-1.5-1.5s0.7-1.5,1.5-1.5h14.8c0.8,0,1.5,0.7,1.5,1.5S23,53.7,22.2,53.7z"/>
</svg>
