<?xml version="1.0" encoding="utf-8"?>
<!-- Generator: Adobe Illustrator 24.0.0, SVG Export Plug-In . SVG Version: 6.00 Build 0)  -->
<svg version="1.1" id="Layer_1" xmlns="http://www.w3.org/2000/svg" xmlns:xlink="http://www.w3.org/1999/xlink" x="0px" y="0px"
	 viewBox="0 0 20 20" style="enable-background:new 0 0 20 20;" xml:space="preserve">
<g>
	<path d="M9.8,4.8C7,4.8,4.7,7.1,4.7,10s2.3,5.2,5.2,5.2S15,12.8,15,10S12.7,4.8,9.8,4.8z M9.8,13.3c-1.8,0-3.3-1.5-3.3-3.3
		S8,6.7,9.8,6.7s3.3,1.5,3.3,3.3S11.7,13.3,9.8,13.3z"/>
	<circle cx="15.2" cy="4.7" r="1.2"/>
	<path d="M18.2,1.7C17.2,0.6,15.7,0,14,0H5.7C2.2,0-0.2,2.3-0.2,5.8v8.3c0,1.7,0.6,3.2,1.7,4.3c1.1,1,2.5,1.6,4.2,1.6H14
		c1.7,0,3.2-0.6,4.2-1.6c1.1-1,1.7-2.5,1.7-4.3V5.8C19.8,4.2,19.3,2.7,18.2,1.7z M18.1,14.2c0,1.2-0.4,2.3-1.2,2.9
		c-0.7,0.7-1.7,1-2.9,1H5.7c-1.2,0-2.2-0.4-2.9-1c-0.7-0.7-1.1-1.7-1.1-3V5.8c0-1.2,0.4-2.2,1.1-2.9c0.7-0.7,1.7-1,2.9-1H14
		c1.2,0,2.2,0.4,2.9,1.1c0.7,0.7,1.1,1.7,1.1,2.9V14.2L18.1,14.2z"/>
</g>
</svg>
