<?xml version="1.0" encoding="utf-8"?>
<!-- Generator: Adobe Illustrator 24.0.0, SVG Export Plug-In . SVG Version: 6.00 Build 0)  -->
<svg version="1.1" id="LinkedIn_alt" xmlns="http://www.w3.org/2000/svg" xmlns:xlink="http://www.w3.org/1999/xlink" x="0px"
	 y="0px" viewBox="0 0 20 20" style="enable-background:new 0 0 20 20;" xml:space="preserve">
<path d="M0.2,6.7h4.3v12.8H0.2V6.7z M2.4,0.5C0.9,0.5,0,1.4,0,2.7c0,1.2,0.9,2.2,2.4,2.2h0c1.5,0,2.4-1,2.4-2.2
	C4.8,1.4,3.9,0.5,2.4,0.5z M15,6.4c-2.3,0-3.3,1.2-3.8,2.1V6.7H6.9c0.1,1.2,0,12.8,0,12.8h4.3v-7.2c0-0.4,0-0.8,0.1-1
	c0.3-0.8,1-1.6,2.2-1.6c1.5,0,2.2,1.2,2.2,2.9v6.9h4.3v-7.4C19.9,8.2,17.8,6.4,15,6.4z"/>
</svg>
