<svg width="99" height="64" viewBox="0 0 99 64" fill="none" xmlns="http://www.w3.org/2000/svg">
<path d="M20.5705 41.6965C16.1543 41.5634 12.4551 37.8826 12.3213 33.4885C12.2543 31.1773 13.1146 28.9897 14.7396 27.3253C16.3646 25.6609 18.5249 24.7478 20.8285 24.7478C25.5315 24.7478 29.355 28.5522 29.355 33.2317C29.355 35.4858 28.466 37.6068 26.8506 39.2141C25.2351 40.812 23.094 41.6965 20.8285 41.6965H20.5705ZM20.8285 25.6989C20.5035 25.6989 20.169 25.7179 19.8344 25.7655C16.4506 26.1935 13.7168 28.9422 13.3058 32.3091C13.0477 34.5062 13.6977 36.6081 15.1506 38.2345C16.5845 39.8324 18.6492 40.7549 20.8285 40.7549C21.1535 40.7549 21.4881 40.7359 21.8322 40.6884C25.2065 40.2699 27.9403 37.5307 28.3417 34.1828C28.6094 32.0143 27.9307 29.8362 26.4969 28.2289C25.0631 26.6215 22.9984 25.6989 20.8285 25.6989Z" fill="#202020"/>
<path fill-rule="evenodd" clip-rule="evenodd" d="M18.3814 53.709C18.1998 53.709 18.0373 53.5949 17.9608 53.4237L15.9439 48.6777L15.5711 48.4875C14.902 48.1546 13.7359 47.5649 12.8469 47.0513C12.0726 46.6043 11.1741 46.0051 10.6197 45.6341L9.96971 45.2061L4.81754 45.8244C4.59769 45.8244 4.44475 45.7292 4.36828 45.5866L1.92124 41.3446C1.82565 41.183 1.83521 40.9737 1.95947 40.8215L5.03739 36.6747L4.99915 36.2467C4.96092 35.8377 4.83666 34.4206 4.83666 33.2317C4.83666 32.0428 4.97048 30.483 4.99915 30.1882L5.03739 29.7602L1.97859 25.6324C1.85432 25.4707 1.84477 25.2709 1.93079 25.1092L4.36828 20.8578C4.45431 20.7056 4.6168 20.6105 4.7793 20.6105L9.96015 21.2287L10.4476 20.9054C10.9925 20.5344 11.9962 19.8591 12.8564 19.355C13.755 18.8319 14.9785 18.2423 15.4947 17.9855L15.877 17.7952L16.116 17.3767L17.9704 13.0302C18.0469 12.84 18.2189 12.7258 18.4101 12.7258H23.2946C23.4953 12.7258 23.6674 12.84 23.7343 13.0207L25.7608 17.7762L31.735 21.2287L36.8489 20.6105C37.0688 20.6105 37.2217 20.7056 37.3077 20.8483L39.7548 25.1092C39.8504 25.2709 39.8408 25.4802 39.7261 25.6324L36.6386 29.7602L36.6864 30.1977C36.8107 31.4341 36.868 32.4518 36.868 33.2317C36.868 34.373 36.7342 35.7331 36.6864 36.2372L36.6386 36.6747L39.7261 40.8025C39.8408 40.9547 39.8504 41.1639 39.7548 41.3256L37.2982 45.5676C37.2122 45.7197 37.0497 45.8148 36.8776 45.8148L31.7254 45.1966L31.1806 45.558C30.6548 45.91 29.6894 46.5662 28.8674 47.0418C27.9784 47.5554 26.8027 48.126 26.2387 48.4114L25.7321 48.6587L23.7152 53.3952C23.6387 53.5854 23.4667 53.6995 23.2755 53.6995H18.3718L18.3814 53.709Z" stroke="#202020" stroke-width="3" stroke-miterlimit="10"/>
<path fill-rule="evenodd" clip-rule="evenodd" d="M67.4657 59.3111C67.2841 59.3111 67.1216 59.216 67.0451 59.0543L64.7032 54.4129L64.2635 54.2607C63.5657 54.0229 62.4665 53.6615 61.5775 53.2906C60.6121 52.8911 59.4363 52.3395 58.8915 52.0731L58.4709 51.8639L53.5386 53.4713C53.4812 53.4903 53.4334 53.4998 53.3857 53.4998C53.2614 53.4998 53.1467 53.4522 53.0511 53.3666L49.6195 49.9236C49.4761 49.781 49.4283 49.5908 49.4857 49.4291L51.1776 44.607L50.9768 44.1885C50.7952 43.8175 50.1835 42.543 49.7438 41.4873C49.4283 40.7169 49.1129 39.8039 48.9026 39.1952L48.6158 38.3772L43.9512 36.047C43.7982 35.9709 43.7026 35.8092 43.7026 35.638V30.7779C43.7026 30.5971 43.8078 30.4355 43.9703 30.3499L48.6063 28.1052L48.8548 27.3444C49.046 26.7452 49.3423 25.8321 49.6577 25.0522C50.0114 24.1962 50.5085 23.1975 50.8048 22.6078L51.1585 21.904L49.543 16.9773C49.4761 16.7871 49.5239 16.5968 49.6482 16.4732L53.118 13.0492C53.204 12.9636 53.3187 12.9161 53.443 12.9161C53.5004 12.9161 53.5482 12.9161 53.5959 12.9446L58.4518 14.6471L59.0827 14.3142C59.6466 14.0193 60.5834 13.5343 61.4341 13.1824C62.2753 12.8305 63.2598 12.5261 63.9098 12.3264L64.6937 12.0791L67.0451 7.41866C67.1216 7.276 67.2554 7.18089 67.4179 7.16187H72.3693C72.5318 7.16187 72.6943 7.26649 72.7708 7.42817L75.0171 12.0506L75.6767 12.2788C76.298 12.4976 77.359 12.8685 78.2288 13.2204C79.0127 13.5438 79.9112 13.9813 80.5038 14.2666L81.2972 14.6471L86.1817 12.9541C86.2295 12.9351 86.2869 12.9256 86.3347 12.9256C86.4589 12.9256 86.5736 12.9731 86.6692 13.0587L90.1104 16.4827C90.2442 16.6159 90.292 16.7966 90.2346 16.9678L88.6001 21.8945L88.9538 22.6459C89.2405 23.2451 89.6802 24.1867 90.0052 24.9761C90.3589 25.8321 90.7508 26.8878 90.9707 27.4965L91.1905 28.1052L95.8361 30.3403C95.989 30.4164 96.0942 30.5876 96.0942 30.7683V35.638C96.0942 35.8092 95.9986 35.9709 95.8361 36.047L91.181 38.3772L90.9324 39.062C90.7126 39.6707 90.3494 40.6884 90.0052 41.5063C89.6038 42.4574 89.0494 43.5988 88.7817 44.1504L88.581 44.5689L88.7244 45.0254L90.2729 49.4196C90.3302 49.5908 90.292 49.7715 90.1582 49.9046L86.717 53.3571C86.631 53.4427 86.5163 53.4903 86.392 53.4903C86.3347 53.4903 86.2869 53.4903 86.2391 53.4618L81.2781 51.8259L80.4274 52.2253C79.8347 52.5107 78.9744 52.9196 78.2288 53.224C77.3781 53.5759 76.3171 53.9563 75.6862 54.1846L75.0171 54.4319L72.7708 59.0543C72.6943 59.216 72.5318 59.3111 72.3502 59.3111H67.4657Z" stroke="#202020" stroke-width="3" stroke-miterlimit="10"/>
<path d="M69.8552 43.3134C69.2148 43.3134 68.5552 43.2563 67.9148 43.1327C63.881 42.3813 60.6692 39.1856 59.9141 35.1719C59.3501 32.1759 60.1435 29.1229 62.0744 26.8022C64.0148 24.4815 66.8442 23.1499 69.8552 23.1499C75.4471 23.1499 79.997 27.6772 79.997 33.2411C79.997 35.9233 78.936 38.4437 77.0147 40.3554C75.0934 42.2576 72.5508 43.3134 69.8456 43.3134H69.8552ZM69.8552 24.101C69.5302 24.101 69.1956 24.12 68.8706 24.1486C64.6074 24.5861 61.1854 28.0005 60.7457 32.2615C60.4685 34.9056 61.2906 37.426 63.0494 39.3663C64.7795 41.2685 67.2648 42.3623 69.8648 42.3623C70.1897 42.3623 70.5148 42.3432 70.8493 42.3147C75.1316 41.8772 78.5632 38.4722 79.0029 34.2303C79.2801 31.5862 78.4581 29.0658 76.6993 27.116C74.9596 25.2043 72.4743 24.101 69.8648 24.101H69.8552Z" fill="#202020"/>
<path d="M69.8649 43.1803C75.3922 43.1803 79.873 38.722 79.873 33.2223C79.873 27.7226 75.3922 23.2642 69.8649 23.2642C64.3377 23.2642 59.8569 27.7226 59.8569 33.2223C59.8569 38.722 64.3377 43.1803 69.8649 43.1803Z" fill="#202020"/>
<path d="M20.8284 41.0308C25.1626 41.0308 28.6762 37.5347 28.6762 33.2222C28.6762 28.9096 25.1626 25.4136 20.8284 25.4136C16.4943 25.4136 12.9807 28.9096 12.9807 33.2222C12.9807 37.5347 16.4943 41.0308 20.8284 41.0308Z" fill="#202020"/>
</svg>
